{"title":"8th March (2015) Malayalam DVDRip x264 - Exclusive","uid":12522255,"size":732535358,"categoryP":"video","categoryS":"movies","magnet":"?xt=urn:btih:b682af3731dce03549e56f4ff60fb5cf5fffaf3d&amp;dn=8th+March+%282015%29+Malayalam+DVDRip+x264+-+Exclusive&amp;tr=udp%3A%2F%2Ftracker.leechers-paradise.org%3A6969&amp;tr=udp%3A%2F%2Fzer0day.ch%3A1337&amp;tr=udp%3A%2F%2Fopen.demonii.com%3A1337&amp;tr=udp%3A%2F%2Ftracker.coppersurfer.tk%3A6969&amp;tr=udp%3A%2F%2Fexodus.desync.com%3A6969","seeders":5,"leechers":0,"uploader":"tykoon123","files":1,"time":1443899731,"description":"http://www.imgpuppy.com/image/IyId\r\n\r\nInfo:\r\nFormat                                   : Matroska\r\nFormat version                           : Version 2\r\nFile size                                : 699 MiB\r\nDuration                                 : 1h 43mn\r\nOverall bit rate mode                    : Variable\r\nOverall bit rate                         : 945 Kbps\r\nEncoded date                             : UTC 2015-10-02 23:54:42\r\nWriting application                      : mkvmerge v7.7.0 ('Six Voices') 32bit built on Feb 28 2015 23:23:00\r\nWriting library                          : libebml v1.3.1 + libmatroska v1.4.2\r\nNUMBER_OF_FRAMES                         : 258426\r\nNUMBER_OF_BYTES                          : 99235584\r\n\r\nVideo\r\nID                                       : 1\r\nFormat                                   : AVC\r\nFormat/Info                              : Advanced Video Codec\r\nFormat profile                           :   \r\nFormat settings, CABAC                   : Yes\r\nFormat settings, ReFrames                : 4 frames\r\nCodec ID                                 : V_MPEG4/ISO/AVC\r\nDuration                                 : 1h 43mn\r\nBit rate mode                            : Variable\r\nBit rate                                 : 815 Kbps\r\nMaximum bit rate                         : 40.0 Mbps\r\nWidth                                    : 720 pixels\r\nHeight                                   : 304 pixels\r\nDisplay aspect ratio                     : 2.35:1\r\nFrame rate mode                          : Constant\r\nFrame rate                               : 23.976 fps\r\nColor space                              : YUV\r\nChroma subsampling                       : 4:2:0\r\nBit depth                                : 8 bits\r\nScan type                                : Progressive\r\nBits/(Pixel*Frame)                       : 0.155\r\nStream size                              : 590 MiB (84%)\r\nWriting library                          : x264 core 146 r2538 121396c\r\nDefault                                  : Yes\r\nForced                                   : No\r\n\r\nAudio\r\nID                                       : 2\r\nFormat                                   : MPEG Audio\r\nFormat version                           : Version 1\r\nFormat profile                           : Layer 3\r\nMode                                     : Joint stereo\r\nMode extension                           : MS Stereo\r\nCodec ID                                 : A_MPEG/L3\r\nCodec ID/Hint                            : MP3\r\nDuration                                 : 1h 43mn\r\nBit rate mode                            : Constant\r\nBit rate                                 : 128 Kbps\r\nChannel(s)                               : 2 channels\r\nSampling rate                            : 48.0 KHz\r\nCompression mode                         : Lossy\r\nStream size                              : 94.6 MiB (14%)\r\nWriting library                          : LAME3.99r\r\nEncoding settings                        : -m j -V 4 -q 2 -lowpass 17 -b 128\r\nDefault                                  : Yes\r\nForced                                   : No\r\n\r\nScreens: \nhttp://www.imgpuppy.com/image/Iou7  \nhttp://www.imgpuppy.com/image/IzZJ  \nhttp://www.imgpuppy.com/image/INqo  \nhttp://www.imgpuppy.com/image/IdKF  \nhttp://www.imgpuppy.com/image/IjWh  \nhttp://www.imgpuppy.com/image/IrtZ  \nhttp://www.imgpuppy.com/image/ItCm","torrent":{"xt":"urn:btih:b682af3731dce03549e56f4ff60fb5cf5fffaf3d","amp;dn":"8th+March+%282015%29+Malayalam+DVDRip+x264+-+Exclusive","amp;tr":["udp%3A%2F%2Ftracker.leechers-paradise.org%3A6969","udp%3A%2F%2Fzer0day.ch%3A1337","udp%3A%2F%2Fopen.demonii.com%3A1337","udp%3A%2F%2Ftracker.coppersurfer.tk%3A6969","udp%3A%2F%2Fexodus.desync.com%3A6969"],"infoHash":"b682af3731dce03549e56f4ff60fb5cf5fffaf3d","infoHashBuffer":{"type":"Buffer","data":[182,130,175,55,49,220,224,53,73,229,111,79,246,15,181,207,95,255,175,61]},"announce":[],"urlList":[]}}